<svg width="931" height="238" xmlns="http://www.w3.org/2000/svg" xmlns:xlink="http://www.w3.org/1999/xlink" xml:space="preserve" overflow="hidden"><defs><clipPath id="clip0"><rect x="810" y="1016" width="144" height="143"/></clipPath><clipPath id="clip1"><rect x="810" y="1016" width="144" height="143"/></clipPath><clipPath id="clip2"><rect x="810" y="1016" width="144" height="143"/></clipPath></defs><g transform="translate(-751 -967)"><g><path d="M755.5 1011.67C755.5 990.588 772.588 973.5 793.667 973.5L1620.33 973.5C1641.41 973.5 1658.5 990.588 1658.5 1011.67L1658.5 1164.33C1658.5 1185.41 1641.41 1202.5 1620.33 1202.5L793.667 1202.5C772.588 1202.5 755.5 1185.41 755.5 1164.33Z" stroke="#EB5EAE" stroke-width="4.58333" stroke-linecap="butt" stroke-linejoin="miter" stroke-miterlimit="8" stroke-opacity="1" fill="none" fill-rule="evenodd"/><text fill="#EB5EAE" fill-opacity="1" font-family="Aptos,Aptos_MSFontService,sans-serif" font-style="normal" font-variant="normal" font-weight="700" font-stretch="normal" font-size="41" text-anchor="start" direction="ltr" writing-mode="lr-tb" unicode-bidi="normal" text-decoration="none" transform="matrix(1 0 0 1 1000.73 1056)">WORKS WITH</text><text fill="#EB5EAE" fill-opacity="1" font-family="Aptos,Aptos_MSFontService,sans-serif" font-style="normal" font-variant="normal" font-weight="700" font-stretch="normal" font-size="78" text-anchor="start" direction="ltr" writing-mode="lr-tb" unicode-bidi="normal" text-decoration="none" transform="matrix(1 0 0 1 998.169 1134)">Open Proficiency</text><g clip-path="url(#clip0)"><g clip-path="url(#clip1)"><g clip-path="url(#clip2)"><path d="M0 0C0.900492 0.00504392 1.80054 1.34752e-05 2.70102-0.00597182 6.62868-0.0102086 10.3869 0.366177 14.2496 1.06344 14.4729 1.10254 14.6963 1.14164 14.9264 1.18192 17.7987 1.6848 20.5469 2.43751 23.3091 3.35539 23.9926 3.57926 24.6789 3.79204 25.3663 4.0034 28.6364 5.02567 31.6174 6.3445 34.6333 7.96256 34.9993 8.15458 35.3649 8.34659 35.7418 8.54444 40.5377 11.0853 40.5377 11.0853 41.846 12.0393 41.846 12.2463 41.846 12.4533 41.846 12.6665 42.0705 12.7474 42.2948 12.8282 42.5259 12.9115 43.4679 13.3169 44.2403 13.8042 45.0801 14.3913 45.357 14.5821 45.6339 14.7729 45.919 14.9695 46.2313 15.2266 46.2313 15.2266 46.5499 15.4889 46.5499 15.6958 46.5499 15.9028 46.5499 16.1161 46.8065 16.2234 46.8065 16.2234 47.0683 16.3329 48.0157 16.8611 48.763 17.5543 49.5489 18.2916 49.7135 18.4452 49.8782 18.5986 50.0478 18.7568 50.5565 19.2333 51.0623 19.7127 51.5675 20.1928 51.862 20.4701 52.1561 20.7474 52.4594 21.0332 58.6827 27.0598 63.6761 34.7694 66.9337 42.7717 67.1037 43.1816 67.2733 43.5918 67.4433 44.0017 67.9168 45.1538 68.37 46.3126 68.8153 47.4757 68.9279 47.7689 69.0402 48.0618 69.1559 48.3638 73.8655 61.5317 73.8915 77.0221 70.3833 90.4384 70.3058 90.7533 70.2281 91.0681 70.1481 91.3927 69.5933 93.5772 68.7808 95.5908 67.8745 97.6511 67.6914 98.0826 67.5085 98.5141 67.3257 98.946 65.9308 102.203 64.3375 105.308 62.5587 108.373 62.2687 108.873 61.987 109.379 61.7067 109.885 61.569 110.091 61.431 110.297 61.289 110.509 61.082 110.509 60.875 110.509 60.6618 110.509 60.6618 110.819 60.6618 111.13 60.6618 111.449 60.4548 111.449 60.2478 111.449 60.0346 111.449 59.9286 111.777 59.9286 111.777 59.8204 112.112 59.3174 113.215 58.6099 114.054 57.82 114.958 56.7832 116.109 56.7832 116.109 55.9578 117.408 55.7509 117.408 55.5439 117.408 55.3307 117.408 55.3307 117.615 55.3307 117.822 55.3307 118.035 55.1237 118.035 54.9167 118.035 54.7035 118.035 54.6291 118.211 54.5548 118.387 54.478 118.569 53.9856 119.452 53.3816 120.067 52.6651 120.779 52.4161 121.029 52.1671 121.28 51.9106 121.538 51.2539 122.112 51.2539 122.112 50.6267 122.112 50.6267 122.319 50.6267 122.526 50.6267 122.739 50.4197 122.739 50.2128 122.739 49.9995 122.739 49.9995 122.946 49.9995 123.153 49.9995 123.366 49.7925 123.366 49.5856 123.366 49.3723 123.366 49.2688 123.676 49.1653 123.987 49.0587 124.307 48.4303 124.867 47.805 125.383 47.1379 125.895 46.9438 126.045 46.75 126.196 46.5499 126.351 44.5944 127.849 42.5569 129.218 40.4862 130.551 39.965 130.892 39.4551 131.25 38.9452 131.609 38.0828 132.147 38.0828 132.147 37.1421 132.147 37.1421 132.354 37.1421 132.561 37.1421 132.774 27.4676 137.392 27.4676 137.392 23.0303 138.732 22.8102 138.8 22.5901 138.867 22.3634 138.937 19.6555 139.759 16.9228 140.434 14.1516 141.006 13.9085 141.057 13.6654 141.108 13.415 141.161 9.64736 141.903 5.83782 141.919 2.01311 141.909 1.2571 141.907 0.50114 141.909-0.254874 141.911-4.6433 141.914-8.84101 141.698-13.1313 140.692-13.5009 140.607-13.8705 140.522-14.2513 140.434-15.3103 140.186-16.3674 139.932-17.4237 139.673-17.6823 139.61-17.9409 139.547-18.2073 139.482-28.1056 137-37.5573 131.796-45.3338 125.248-46.1862 124.584-47.0388 123.921-47.894 123.261-48.0841 123.089-48.2741 122.916-48.4698 122.739-48.4698 122.532-48.4698 122.325-48.4698 122.112-48.6768 122.112-48.8837 122.112-49.097 122.112-49.097 121.905-49.097 121.698-49.097 121.484-49.4074 121.381-49.7179 121.277-50.0378 121.171-50.0378 120.964-50.0378 120.757-50.0378 120.544-50.2447 120.544-50.4517 120.544-50.665 120.544-50.665 120.337-50.665 120.13-50.665 119.916-50.8719 119.916-51.0789 119.916-51.2922 119.916-51.2922 119.709-51.2922 119.503-51.2922 119.289-51.4991 119.289-51.7061 119.289-51.9193 119.289-52.3923 118.831-52.3923 118.831-52.8993 118.231-53.0684 118.035-53.2371 117.838-53.4114 117.636-53.8009 117.094-53.8009 117.094-53.8009 116.467-54.0079 116.467-54.2149 116.467-54.4281 116.467-54.9791 115.792-55.4909 115.117-55.9961 114.409-56.1495 114.196-56.3028 113.983-56.4609 113.763-56.9363 113.099-57.4073 112.431-57.8777 111.763-58.0157 111.569-58.1533 111.375-58.2954 111.175-61.5452 106.573-64.0474 101.661-66.0312 96.3967-66.246 95.8934-66.4614 95.3904-66.6778 94.8877-68.3295 90.7103-69.1411 86.377-69.6971 81.9371-69.7893 81.2761-69.7893 81.2761-70.1079 80.4033-70.4915 77.475-70.4974 74.5127-70.4999 71.564-70.4999 71.3313-70.5003 71.0983-70.5006 70.8587-70.4733 51.8293-63.1728 34.5069-50.0378 20.82-49.8019 20.5714-49.8019 20.5714-49.5614 20.3178-49.1026 19.8354-48.6401 19.3568-48.1756 18.8796-47.9078 18.6035-47.6397 18.3275-47.3634 18.043-46.5957 17.3772-45.9808 17.0509-45.0202 16.7433-45.0202 16.5363-45.0202 16.3293-45.0202 16.1161-44.8133 16.1161-44.6063 16.1161-44.393 16.1161-44.393 15.9091-44.393 15.7021-44.393 15.4889-42.6959 14.2345-42.6959 14.2345-41.8843 14.2345-41.8843 14.0275-41.8843 13.8205-41.8843 13.6073-41.1225 13.0819-40.3627 12.5948-39.5715 12.1177-39.2228 11.9049-39.2228 11.9049-38.8671 11.6877-38.4049 11.4058-37.942 11.1246-37.4785 10.8444-37.0041 10.555-36.5343 10.2576-36.0667 9.95685-31.9687 7.34964-27.3609 5.38818-22.7548 3.88581-22.4706 3.7815-22.1864 3.67723-21.8936 3.56976-19.8573 2.8361-17.7853 2.31552-15.6793 1.82783-15.4149 1.76578-15.1505 1.70373-14.8781 1.6398-13.9521 1.43196-13.0242 1.24436-12.0925 1.06344-11.8857 1.02281-11.6789 0.982187-11.4658 0.940332-7.63284 0.206044-3.8991-0.0258593 0 0ZM-31.4672 14.1125C-32.1468 14.5382-32.8298 14.9586-33.5137 15.3774-37.2051 17.5975-37.2051 17.5975-40.6299 20.1928-40.6299 20.3998-40.6299 20.6068-40.6299 20.82-40.8174 20.9041-41.0049 20.9882-41.1981 21.0748-41.8836 21.447-42.3274 21.7909-42.8251 22.388-42.8251 22.595-42.8251 22.8019-42.8251 23.0152-43.032 23.0152-43.239 23.0152-43.4522 23.0152-45.728 25.5609-46.9137 28.7884-48.0348 31.9602-49.0446 34.8111-50.1478 37.4839-51.6268 40.1281-52.1762 41.1106-52.6221 41.9852-52.8601 43.0853-53.0671 43.0853-53.2741 43.0853-53.4873 43.0853-53.986 43.7291-54.446 44.3701-54.8985 45.0453-55.0249 45.2294-55.1516 45.4132-55.2817 45.6026-55.9014 46.5129-56.48 47.4136-56.9369 48.4165-57.1439 48.4165-57.3508 48.4165-57.5641 48.4165-60.7082 52.1956-62.2699 56.3605-61.8773 61.3047-61.6499 62.8629-61.3304 64.3986-61.0049 65.9387-60.1243 70.1239-59.8762 73.5064-60.6787 77.7246-61.3523 81.34-61.0507 84.9097-59.1321 88.1256-57.4901 90.5071-55.3896 92.5034-53.1345 94.2997-49.7333 97.3068-48.4475 101.365-47.153 105.571-46.2668 108.367-45.0858 110.601-43.4522 113.017-43.3252 113.213-43.1979 113.408-43.0671 113.609-40.9576 116.504-36.9972 117.978-33.5887 118.521-32.0091 118.701-30.4221 118.765-28.8353 118.849-19.477 119.364-19.477 119.364-15.4968 122.058-14.9412 122.481-14.9412 122.481-14.2877 122.425-14.2877 122.632-14.2877 122.839-14.2877 123.052-13.3295 124.001-13.3295 124.001-12.0925 124.307-12.0925 124.514-12.0925 124.721-12.0925 124.934-11.8856 124.934-11.6786 124.934-11.4653 124.934-11.4653 125.141-11.4653 125.348-11.4653 125.561-10.7687 126.054-10.0809 126.499-9.34856 126.933-9.02932 127.123-9.02932 127.123-8.70362 127.317-4.45238 129.776 0.0616926 130.512 4.87476 129.568 6.49869 129.132 8.01926 128.454 9.54563 127.756 9.54563 127.549 9.54563 127.342 9.54563 127.129 9.73109 127.093 9.91652 127.057 10.1076 127.02 10.85 126.801 11.2475 126.536 11.8437 126.05 12.0404 125.894 12.237 125.738 12.4397 125.577 12.7535 125.327 12.7535 125.327 13.0736 125.071 14.7995 123.736 16.5275 122.574 18.4831 121.602 18.6817 121.502 18.8803 121.403 19.0849 121.3 22.3312 119.752 25.7627 119.576 29.3059 119.618 29.8165 119.623 29.8165 119.623 30.3374 119.628 31.0171 119.637 31.6968 119.651 32.3763 119.67 36.0351 119.723 39.5793 118.911 42.3214 116.36 44.6053 113.915 45.8619 111.281 46.9956 108.186 48.969 102.893 52.5688 99.8262 57.4292 97.1748 57.6679 97.0214 57.9068 96.8681 58.153 96.7103 58.153 96.5034 58.153 96.2964 58.153 96.0831 58.3374 96.0051 58.5218 95.9273 58.7115 95.8467 60.7628 94.6948 61.9174 92.3084 62.591 90.1405 63.6181 86.4488 63.5136 82.84 63.4418 79.0451 63.3518 73.8426 63.439 69.1129 64.9035 64.0872 65.7593 60.5288 63.6717 56.85 62.269 53.689 60.5254 49.7505 59.1418 45.8459 58.1094 41.6647 56.3564 34.5894 53.6667 28.2676 47.2555 24.2108 45.0795 22.9756 42.747 21.9997 40.3956 21.1495 37.1355 19.9645 34.1387 17.9523 31.6394 15.5563 31.2026 15.1082 31.2026 15.1082 30.5566 15.1753 30.5566 14.9683 30.5566 14.7613 30.5566 14.5481 30.3496 14.5481 30.1426 14.5481 29.9294 14.5481 29.9294 14.3411 29.9294 14.1341 29.9294 13.9209 29.7224 13.9209 29.5155 13.9209 29.3022 13.9209 29.3022 13.7139 29.3022 13.5069 29.3022 13.2937 28.7585 12.79 28.1927 12.3098 27.6166 11.8433 27.3037 11.587 26.9908 11.3307 26.6685 11.0667 25.9365 10.4097 25.9365 10.4097 25.2255 10.4713 25.2255 10.2644 25.2255 10.0574 25.2255 9.84414 21.1743 7.75778 17.665 6.26632 13.054 6.33578 12.793 6.336 12.5321 6.33619 12.2633 6.33641 10.9021 6.33092 10.9021 6.33092 9.56639 6.55138 8.17486 6.88812 6.69704 6.76613 5.27287 6.76697 4.94586 6.77083 4.61881 6.77466 4.28188 6.77861 2.19049 6.78253 0.289641 6.55316-1.74384 6.08098-12.5122 4.28627-22.5779 8.52703-31.4672 14.1125Z" stroke="#EB5EAE" stroke-width="0.313744" stroke-linecap="butt" stroke-linejoin="miter" stroke-miterlimit="4" stroke-opacity="1" fill="#EB5EAE" fill-rule="nonzero" fill-opacity="1" transform="matrix(1 0 0 1.00179 881.421 1015.88)"/><path d="M0 0C0.265185 0.21991 0.53037 0.439819 0.803591 0.666393 0.803591 0.873366 0.803591 1.08034 0.803591 1.29359 0.983075 1.36958 1.16256 1.44558 1.34749 1.52388 5.03887 3.58598 7.29959 8.7808 8.6435 12.5831 8.77267 12.8959 8.77267 12.8959 8.90442 13.2151 10.2643 16.7255 10.4391 20.811 9.89789 24.4997 9.84997 24.906 9.84997 24.906 9.80111 25.3205 8.91329 31.4895 5.60667 37.0658 0.779093 40.9855-4.75996 45.1062-11.2512 46.8764-18.1062 46.051-23.0684 45.304-27.4773 43.2663-31.1833 39.866-31.4202 39.6577-31.6569 39.4495-31.9012 39.235-35.9548 35.4671-39.0421 29.7097-39.4006 24.1352-39.4322 23.0147-39.4379 21.8967-39.4348 20.7758-39.4398 20.3986-39.4448 20.0214-39.4501 19.6329-39.4514 17.2343-39.1635 15.168-38.3961 12.8967-38.2779 12.5349-38.16 12.1731-38.0383 11.8003-36.9975 9.04077-35.6399 6.5674-34.0058 4.11595-33.7985 4.11595-33.5918 4.11595-33.3786 4.11595-33.2572 3.84187-33.2572 3.84187-33.1334 3.56227-32.7203 2.80503-32.265 2.29164-31.6538 1.68558-31.3675 1.39695-31.3675 1.39695-31.0755 1.10249-30.5561 0.666393-30.5561 0.666393-29.9289 0.666393-29.9289 0.459419-29.9289 0.252445-29.9289 0.0391996-21.1196-7.06683-8.93929-6.10488 0 0ZM-27.7337 7.25192C-31.6102 11.9203-33.7229 16.8282-33.3786 22.9317-32.8825 27.6215-31.1636 31.5986-28.0473 35.162-27.8403 35.162-27.6333 35.162-27.4201 35.162-27.4201 35.369-27.4201 35.576-27.4201 35.7892-27.2131 35.7892-27.0061 35.7892-26.7929 35.7892-26.7929 35.9962-26.7929 36.2031-26.7929 36.4164-22.1674 39.7659-17.231 41.3505-11.5247 40.6107-7.85575 39.9378-4.72214 38.3412-2.01878 35.7892-1.69134 35.4812-1.69134 35.4812-1.35728 35.167 2.33622 31.3589 3.88066 26.6241 4.07675 21.3834 3.94056 16.1429 1.97981 11.0235-1.70518 7.25192-9.20117 0.770572-20.318-0.163756-27.7337 7.25192Z" stroke="#EB5EAE" stroke-width="0.313744" stroke-linecap="butt" stroke-linejoin="miter" stroke-miterlimit="4" stroke-opacity="1" fill="#EB5EAE" fill-rule="nonzero" fill-opacity="1" transform="matrix(1 0 0 1.00179 897.376 1064.66)"/><path d="M0 0C0.622662 0.33186 1.22283 0.687363 1.82324 1.05793 2.2642 1.31879 2.70561 1.57889 3.14744 1.83825 3.36376 1.96624 3.58008 2.09423 3.80298 2.22611 4.68513 2.73343 5.59243 3.18106 6.5076 3.62549 9.69904 5.20608 9.69904 5.20608 10.702 6.58506 11.1067 7.90053 10.9575 8.86575 10.3884 10.113 9.69935 10.9589 9.38961 11.0725 8.29118 11.4262 6.07988 11.6048 4.17604 10.2435 2.3016 9.22184 1.59176 8.85032 0.873648 8.5149 0.142558 8.18735-0.097362 8.07959-0.337282 7.97184-0.584472 7.86083-1.04593 7.65545-1.50852 7.45265-1.97238 7.25277-3.32362 6.6411-4.15848 6.07098-4.97787 4.78188-5.32499 3.50918-5.37159 2.81813-4.93867 1.56752-3.74927-0.176969-2.04862-0.821692 0 0Z" stroke="#EB5EAE" stroke-width="0.313744" stroke-linecap="butt" stroke-linejoin="miter" stroke-miterlimit="4" stroke-opacity="1" fill="#EB5EAE" fill-rule="nonzero" fill-opacity="1" transform="matrix(1 0 0 1.00179 927.305 1081.9)"/><path d="M0 0C1.09573 0.52296 1.51364 0.859273 2.19518 1.88158 2.63109 4.54063 1.46277 6.26563 0.0877396 8.44565-0.351128 9.15495-0.767229 9.87503-1.18211 10.5986-1.48036 11.1099-1.77885 11.6212-2.07758 12.1323-2.21636 12.3764-2.35514 12.6205-2.49813 12.8721-3.35141 14.3007-4.00265 15.1243-5.64474 15.6798-7.31066 15.6506-8.21551 15.2692-9.40789 14.1118-9.94292 13.0418-9.97124 12.1198-9.72149 10.9759-9.14407 9.87236-8.50966 8.86418-7.82276 7.8252-7.34992 7.10741-6.94428 6.42268-6.58553 5.64474-6.37855 5.64474-6.17158 5.64474-5.95833 5.64474-5.9276 5.47373-5.8969 5.30276-5.86523 5.12658-5.58572 4.19329-5.14217 3.47145-4.62555 2.64597-4.44282 2.34804-4.26011 2.05011-4.07186 1.74315-2.94235 0.286803-1.83137-0.228921 0 0Z" stroke="#EB5EAE" stroke-width="0.313744" stroke-linecap="butt" stroke-linejoin="miter" stroke-miterlimit="4" stroke-opacity="1" fill="#EB5EAE" fill-rule="nonzero" fill-opacity="1" transform="matrix(1 0 0 1.00179 908.528 1039.25)"/><path d="M0 0C0.940463 0.566346 1.69549 1.1958 2.19518 2.19518 2.37051 3.97775 2.37051 3.97775 2.19518 4.70395 0.591242 6.60513-1.60955 7.62331-3.76316 8.7807-3.97866 8.8989-4.1942 9.01709-4.41622 9.13886-5.07086 9.49611-5.72931 9.84508-6.38953 10.1919-6.59058 10.3018-6.79159 10.4117-6.99872 10.5249-8.49755 11.2923-9.6059 11.4443-11.2895 11.2895-12.3096 10.6959-12.9865 10.2633-13.3781 9.1139-13.5981 7.77838-13.5037 6.81718-12.8575 5.64474-12.0171 5.03347-12.0171 5.03347-11.0151 4.48835-10.686 4.30602-10.357 4.12373-10.0179 3.93589-9.71315 3.77539-9.40833 3.61492-9.0943 3.44956-8.8671 3.32466-8.63993 3.19975-8.40586 3.07104-7.83991 2.82237-7.83991 2.82237-6.89912 2.82237-6.89912 2.61539-6.89912 2.40842-6.89912 2.19518-2.09613-0.449171-2.09613-0.449171 0 0Z" stroke="#EB5EAE" stroke-width="0.313744" stroke-linecap="butt" stroke-linejoin="miter" stroke-miterlimit="4" stroke-opacity="1" fill="#EB5EAE" fill-rule="nonzero" fill-opacity="1" transform="matrix(1 0 0 1.00179 912.292 1116.53)"/><path d="M0 0C0.373522-0.00121274 0.373522-0.00121274 0.754592-0.00244997 1.41118 0.0391996 1.41118 0.0391996 2.03838 0.352796 2.03838 0.55977 2.03838 0.766743 2.03838 0.979989 2.24535 0.979989 2.45232 0.979989 2.66557 0.979989 3.29276 1.92078 3.29276 1.92078 3.29276 2.86157 3.49974 2.86157 3.70671 2.86157 3.91996 2.86157 4.11398 3.22377 4.30803 3.58598 4.50795 3.95916 5.06643 4.97283 5.65647 5.95846 6.27927 6.93343 6.4196 7.15354 6.55994 7.37366 6.7045 7.60042 6.98771 8.04237 7.27299 8.483 7.56047 8.9222 8.26449 10.0218 8.8406 10.9343 8.9375 12.2695 8.62795 13.6483 8.24931 14.6098 7.05592 15.4054 6.07374 15.6022 5.20322 15.6687 4.23355 15.4054 2.79352 14.2291 1.93045 12.7518 0.999589 11.1719 0.698452 10.667 0.397101 10.1624 0.0955491 9.6578-0.0521019 9.40978-0.199753 9.16178-0.351877 8.90627-0.745206 8.25674-1.15036 7.61811-1.56553 6.98241-1.74119 6.71046-1.74119 6.71046-1.9204 6.43302-2.23298 5.95147-2.54899 5.47216-2.86524 4.99305-3.36025 3.9775-3.4199 3.35087-3.29276 2.23438-2.35422 0.576281-1.88721-0.0061273 0 0Z" stroke="#EB5EAE" stroke-width="0.313744" stroke-linecap="butt" stroke-linejoin="miter" stroke-miterlimit="4" stroke-opacity="1" fill="#EB5EAE" fill-rule="nonzero" fill-opacity="1" transform="matrix(1 0 0 1.00179 859.137 1111.15)"/><path d="M0 0C1.47131 0.172641 2.2294 0.807191 3.23396 1.86198 3.70307 2.8002 3.68159 3.31757 3.54756 4.37075 3.00939 5.37598 2.33717 6.27334 1.66598 7.19312 1.47073 7.48298 1.27548 7.7728 1.07431 8.07144-0.0485171 9.73567-0.0485171 9.73567-0.529194 10.3291-0.736168 10.3291-0.943141 10.3291-1.15639 10.3291-1.25341 10.6492-1.25341 10.6492-1.35238 10.9759-1.97861 12.3137-2.94256 13.7309-4.29235 14.4058-5.25164 14.5378-6.1575 14.5596-7.11472 14.4058-8.05551 13.6414-8.05551 13.6414-8.6827 12.8379-8.78619 12.7344-8.88968 12.6309-8.9963 12.5243-9.01882 12.0478-9.02261 11.5704-9.0159 11.0935-9.01308 10.8344-9.01025 10.5752-9.00734 10.3083-9.0037 10.1082-9.00006 9.90805-8.9963 9.70189-8.78933 9.70189-8.58235 9.70189-8.36911 9.70189-8.27208 9.30413-8.27208 9.30413-8.17311 8.8983-7.70318 7.72347-7.12711 7.01948-6.28049 6.10042-5.8302 5.63213-5.8302 5.63213-5.54674 4.99794-5.33976 4.99794-5.13279 4.99794-4.91954 4.99794-4.84234 4.7736-4.76513 4.54922-4.68557 4.31807-3.83616 2.3996-2.25747 0.114786 0 0Z" stroke="#EB5EAE" stroke-width="0.313744" stroke-linecap="butt" stroke-linejoin="miter" stroke-miterlimit="4" stroke-opacity="1" fill="#EB5EAE" fill-rule="nonzero" fill-opacity="1" transform="matrix(1 0 0 1.00179 886.479 1114.35)"/><path d="M0 0C1.11078 0.971936 1.51898 1.53241 1.72478 2.99877 1.56139 4.12207 1.32683 4.75673 0.627193 5.64474 0.420219 5.64474 0.213246 5.64474 0 5.64474 0 5.85171 0 6.05868 0 6.27193-0.603598 6.78093-1.20816 7.25421-1.84238 7.72231-2.21624 8.00292-2.58986 8.28387-2.96324 8.5651-3.15055 8.70578-3.33789 8.84646-3.53088 8.99141-4.57976 9.79167-5.59284 10.6368-6.6088 11.4781-7.21272 11.9167-7.21272 11.9167-7.83991 11.9167-7.83991 12.1236-7.83991 12.3306-7.83991 12.5439-10.3584 12.7908-10.3584 12.7908-11.6031 11.7795-11.81 11.5143-12.017 11.2491-12.2303 10.9759-12.3338 10.8724-12.4372 10.7689-12.5439 10.6623-12.6818 9.35483-12.7416 8.20845-12.1127 7.03632-11.6031 6.58553-11.6031 6.58553-10.9759 6.58553-10.9759 6.37855-10.9759 6.17158-10.9759 5.95833-10.4798 5.5161-10.4798 5.5161-9.78029 4.99794-8.62202 4.12605-7.50063 3.22446-6.38953 2.29317-2.40737-0.946832-2.40737-0.946832 0 0Z" stroke="#EB5EAE" stroke-width="0.313744" stroke-linecap="butt" stroke-linejoin="miter" stroke-miterlimit="4" stroke-opacity="1" fill="#EB5EAE" fill-rule="nonzero" fill-opacity="1" transform="matrix(1 0 0 1.00179 851.454 1091.08)"/><path d="M0 0C1.64051 0.290869 2.8569 1.25047 4.18331 2.2124 4.45962 2.40341 4.73593 2.59441 5.02062 2.79121 5.84183 3.36395 6.64997 3.9516 7.45648 4.54477 7.72677 4.73769 7.99706 4.93061 8.27556 5.1294 8.53039 5.31687 8.78519 5.50434 9.04776 5.69748 9.27562 5.86334 9.50348 6.02921 9.73827 6.20012 10.5497 7.01036 10.6654 7.78977 10.6807 8.9094 10.5546 9.84282 10.2584 10.4152 9.65165 11.1303 8.51791 11.8861 7.88077 12.0015 6.53777 11.978 4.58996 11.5319 3.04405 10.2077 1.4562 9.04262 0.577087 8.41009-0.334316 7.83439-1.24581 7.24954-3.64775 5.7073-3.64775 5.7073-3.97998 4.18463-3.99729 2.95037-3.9458 1.96508-3.245 0.918816-2.052-0.0117154-1.46861-0.0382895 0 0Z" stroke="#EB5EAE" stroke-width="0.313744" stroke-linecap="butt" stroke-linejoin="miter" stroke-miterlimit="4" stroke-opacity="1" fill="#EB5EAE" fill-rule="nonzero" fill-opacity="1" transform="matrix(1 0 0 1.00179 834.903 1068)"/><path d="M0 0C1.74415 1.01052 2.51248 2.7379 3.44956 4.44915 3.60884 4.73393 3.76811 5.01874 3.93222 5.31217 4.24854 5.87874 4.56264 6.4466 4.87439 7.01572 5.17447 7.55724 5.4817 8.09487 5.79649 8.62795 5.93964 8.8724 6.0828 9.11685 6.23028 9.3687 6.35839 9.58254 6.48646 9.79638 6.61845 10.0167 7.12921 11.1915 7.008 12.2979 6.58553 13.4846 5.90082 14.3619 5.43303 14.6608 4.34137 14.8664 3.11516 14.9482 2.40671 14.8801 1.37198 14.1902 0.438656 13.0562-0.251457 11.7304-0.970189 10.4552-1.78667 9.02474-2.66529 7.63673-3.54389 6.24377-4.22998 5.06869-4.72195 4.19517-4.66475 2.82237-4.34811 1.73676-3.90757 1.13197-3.13596 0.313596-2.14862-0.180076-1.06868-0.209885 0 0Z" stroke="#EB5EAE" stroke-width="0.313744" stroke-linecap="butt" stroke-linejoin="miter" stroke-miterlimit="4" stroke-opacity="1" fill="#EB5EAE" fill-rule="nonzero" fill-opacity="1" transform="matrix(1 0 0 1.00179 855.844 1038.93)"/><path d="M0 0C1.34641 0.723069 1.34641 0.723069 1.88158 1.56798 2.33618 3.67915 1.80203 5.52366 1.00571 7.47363 0.453542 8.92286 0.0585196 10.4136-0.336489 11.9125-0.795256 13.5606-1.3519 15.0909-2.81257 16.111-4.00149 16.4768-5.09249 16.3563-6.27193 15.9934-7.09512 15.2094-7.09512 15.2094-7.52632 14.1118-7.43911 11.6752-6.69206 9.59869-5.84073 7.33032-5.71542 6.98753-5.59011 6.6447-5.461 6.29153-2.9463-0.541158-2.9463-0.541158 0 0Z" stroke="#EB5EAE" stroke-width="0.313744" stroke-linecap="butt" stroke-linejoin="miter" stroke-miterlimit="4" stroke-opacity="1" fill="#EB5EAE" fill-rule="nonzero" fill-opacity="1" transform="matrix(1 0 0 1.00179 872.778 1027.31)"/><path d="M0 0C1.36507 1.0021 1.87213 2.46548 2.50877 3.97876 2.61226 4.21869 2.71575 4.45859 2.82237 4.7058 3.03146 5.19052 3.23901 5.67594 3.44505 6.16198 3.86984 7.14633 4.32218 8.11763 4.77767 9.08809 5.27388 10.3984 5.13649 11.5598 4.70395 12.8575 3.67657 13.8848 2.6834 14.0626 1.25439 14.1118 0.162001 13.8031-0.450096 13.4551-1.05686 12.4818-1.48748 11.5987-1.87643 10.7069-2.25397 9.79989-2.38717 9.49347-2.52037 9.18706-2.65761 8.87136-2.91583 8.27537-3.17071 7.67794-3.42184 7.07897-3.62969 6.5875-3.84316 6.09832-4.0665 5.61372-4.78752 4.04684-4.89841 2.89924-4.39035 1.25439-3.28405-0.163059-1.70525-0.414872 0 0Z" stroke="#EB5EAE" stroke-width="0.313744" stroke-linecap="butt" stroke-linejoin="miter" stroke-miterlimit="4" stroke-opacity="1" fill="#EB5EAE" fill-rule="nonzero" fill-opacity="1" transform="matrix(1 0 0 1.00179 923.895 1048.99)"/><path d="M0 0C0.688147 0.638178 0.905827 1.03746 1.05471 1.9612 1.04946 2.20011 1.0442 2.43902 1.03879 2.68517 1.03757 2.92489 1.03636 3.1646 1.03511 3.41158 0.940789 4.07675 0.940789 4.07675 0.313596 5.01754-2.86446 6.63567-7.77917 7.05542-11.2895 6.58553-12.315 5.87376-12.4307 5.03975-12.6615 3.83544-12.4689 2.6902-11.8618 1.95508-10.9759 1.25439-10.0182 0.854754-9.05707 0.677102-8.03591 0.509594-7.62181 0.435313-7.62181 0.435313-7.19933 0.359532-4.87247-0.0299235-2.3404-0.433055 0 0Z" stroke="#EB5EAE" stroke-width="0.313744" stroke-linecap="butt" stroke-linejoin="miter" stroke-miterlimit="4" stroke-opacity="1" fill="#EB5EAE" fill-rule="nonzero" fill-opacity="1" transform="matrix(1 0 0 1.00179 899.434 1030.77)"/><path d="M0 0C0.218975 0.0629106 0.43795 0.125822 0.663561 0.190638 1.92181 0.586206 2.6776 0.917022 3.31236 2.09718 3.66967 3.27116 3.6852 3.81973 3.25356 4.97834 2.68237 5.86469 2.36882 6.33211 1.43078 6.80112-0.326996 6.90176-1.9194 6.64125-3.62596 6.27193-3.87213 6.22524-4.11834 6.17854-4.37197 6.13043-6.00957 5.77836-6.87341 5.30793-7.97711 3.97876-8.0806 3.87527-8.18408 3.77178-8.29071 3.66516-8.42922 2.70739-8.43876 1.7994-8.29071 0.842791-6.07794-2.02784-3.02071-0.902772 0 0Z" stroke="#EB5EAE" stroke-width="0.313744" stroke-linecap="butt" stroke-linejoin="miter" stroke-miterlimit="4" stroke-opacity="1" fill="#EB5EAE" fill-rule="nonzero" fill-opacity="1" transform="matrix(1 0 0 1.00179 911.488 1104.06)"/><path d="M0 0C0.664342 0.088051 1.32435 0.191209 1.98539 0.301193 2.30021 0.348566 2.30021 0.348566 2.62139 0.396894 4.27018 0.702052 5.10758 1.29926 6.27776 2.43757 6.71993 3.32193 6.66832 3.9648 6.59136 4.94633 6.06837 6.04206 5.73207 6.45999 4.70978 7.1415 2.69067 7.50863 0.610108 7.00672-1.36617 6.59271-1.61238 6.54357-1.85859 6.4944-2.11226 6.44375-3.51962 6.1279-4.42798 5.83998-5.32531 4.63273-5.76397 3.19153-5.61977 2.23771-5.01171 0.869587-3.77928-0.714987-1.80815-0.207194 0 0Z" stroke="#EB5EAE" stroke-width="0.313744" stroke-linecap="butt" stroke-linejoin="miter" stroke-miterlimit="4" stroke-opacity="1" fill="#EB5EAE" fill-rule="nonzero" fill-opacity="1" transform="matrix(1 0 0 1.00179 851.761 1059.11)"/><path d="M0 0C0.467337 0.248917 0.932824 0.50134 1.39648 0.757041 1.63297 0.882357 1.86945 1.00767 2.1131 1.13679 3.18542 1.71581 4.11351 2.22029 4.92444 3.14823 5.31396 4.46467 5.38119 5.61645 4.86564 6.89178 4.24039 7.60327 3.95749 7.91856 3.04286 8.16577 1.14804 8.05159-0.113705 7.64319-1.71988 6.65659-1.90482 6.54884-2.08977 6.44111-2.28031 6.3301-5.60268 4.36034-5.60268 4.36034-6.05144 2.83462-5.98656 1.31-5.54103 0.47376-4.48346-0.614944-2.85406-1.15807-1.49757-0.739417 0 0Z" stroke="#EB5EAE" stroke-width="0.313744" stroke-linecap="butt" stroke-linejoin="miter" stroke-miterlimit="4" stroke-opacity="1" fill="#EB5EAE" fill-rule="nonzero" fill-opacity="1" transform="matrix(1 0 0 1.00179 933.082 1068.45)"/><path d="M0 0C0.502943-0.016985 1.00605-0.0291226 1.50918-0.0391996 1.78933-0.0464759 2.06947-0.0537523 2.3581-0.0612492 3.13596 0 3.13596 0 4.07675 0.627193 4.07675 0.834167 4.07675 1.04114 4.07675 1.25439 4.28373 1.25439 4.4907 1.25439 4.70395 1.25439 4.70395 1.46136 4.70395 1.66833 4.70395 1.88158 4.89797 1.9786 5.09202 2.07562 5.29194 2.17558 5.72314 2.39117 6.15433 2.60677 6.58553 2.82237 6.58553 3.02934 6.58553 3.23632 6.58553 3.44956 6.7925 3.44956 6.99947 3.44956 7.21272 3.44956 8.13657 4.41036 8.41417 5.26196 8.4671 6.58553 7.98771 7.83198 7.70576 8.34747 6.58553 9.0943 5.90935 9.17759 5.90935 9.17759 5.17434 9.1727 4.81051 9.17511 4.81051 9.17511 4.43933 9.17759 3.76316 9.0943 3.76316 9.0943 2.82237 8.4671 2.82237 8.26013 2.82237 8.05316 2.82237 7.83991 2.55193 7.71742 2.55193 7.71742 2.27602 7.59245 1.51525 7.18443 0.924925 6.72075 0.274397 6.15433 0.0601469 5.97081-0.154103 5.78727-0.374845 5.5982-1.13017 4.82324-1.54283 4.20746-1.60473 3.11392-1.52878 2.46957-1.52878 2.46957-1.25439 1.25439-0.607593 0.783991-0.607593 0.783991 0 0.627193 0 0.420219 0 0.213246 0 0Z" stroke="#EB5EAE" stroke-width="0.313744" stroke-linecap="butt" stroke-linejoin="miter" stroke-miterlimit="4" stroke-opacity="1" fill="#EB5EAE" fill-rule="nonzero" fill-opacity="1" transform="matrix(1 0 0 1.00179 839.537 1109.31)"/><path d="M0 0C0.253462 0.034765 0.506922 0.0695303 0.768067 0.105349 1.0573 0.15022 1.0573 0.15022 1.35238 0.195998 1.35238 0.402971 1.35238 0.609945 1.35238 0.823191 1.55936 0.823191 1.76633 0.823191 1.97958 0.823191 2.59795 3.28194 1.79389 4.83033 0.685992 7.03632 0.456785 7.52352 0.456785 7.52352 0.222948 8.02061-1.09694 10.7218-1.09694 10.7218-2.72437 11.4855-4.02752 11.4323-4.95962 11.1985-5.86033 10.2311-6.51155 8.36425-5.70369 6.837-4.906 5.14809-4.55408 4.44589-4.19062 3.75112-3.82196 3.05757-3.63822 2.70102-3.63822 2.70102-3.45078 2.33727-3.33074 2.11009-3.21066 1.8829-3.08697 1.64883-2.97964 1.44474-2.87231 1.24064-2.76173 1.03037-1.98302-0.125133-1.26998-0.184056 0 0Z" stroke="#EB5EAE" stroke-width="0.313744" stroke-linecap="butt" stroke-linejoin="miter" stroke-miterlimit="4" stroke-opacity="1" fill="#EB5EAE" fill-rule="nonzero" fill-opacity="1" transform="matrix(1 0 0 1.00179 833.481 1082.72)"/><path d="M0 0C0.748467 0.126174 0.748467 0.126174 1.57166 0.733766 2.18046 2.08974 2.32267 3.05603 2.00285 4.51651 1.11192 6.63934 0.191259 8.54039-1.7603 9.84765-2.86818 10.0092-3.47747 9.91865-4.50428 9.47526-5.37646 8.77267-5.62112 8.44252-5.83707 7.33888-5.68086 4.83958-4.40437 2.45918-2.89464 0.505919-1.99928-0.164521-1.07883-0.0393733 0 0Z" stroke="#EB5EAE" stroke-width="0.313744" stroke-linecap="butt" stroke-linejoin="miter" stroke-miterlimit="4" stroke-opacity="1" fill="#EB5EAE" fill-rule="nonzero" fill-opacity="1" transform="matrix(1 0 0 1.00179 917.188 1089.7)"/><path d="M0 0C1.11242 0.916113 1.56135 1.39067 1.72478 2.86157 1.59215 4.14361 1.41464 4.82772 0.666393 5.87993-0.843465 7.04943-2.38882 7.31799-4.26664 7.23721-5.21455 7.10017-5.81584 6.80987-6.54633 6.19353-7.22351 5.17776-7.25891 4.86118-7.25192 3.68476-7.25355 3.41309-7.25515 3.14145-7.25681 2.86157-7.17352 2.11678-7.17352 2.11678-6.54633 1.17599-6.33935 1.17599-6.13238 1.17599-5.91913 1.17599-5.91913 0.969013-5.91913 0.762039-5.91913 0.548794-3.95662-0.453341-2.09436-0.91059 0 0Z" stroke="#EB5EAE" stroke-width="0.313744" stroke-linecap="butt" stroke-linejoin="miter" stroke-miterlimit="4" stroke-opacity="1" fill="#EB5EAE" fill-rule="nonzero" fill-opacity="1" transform="matrix(1 0 0 1.00179 932.009 1101.22)"/><path d="M0 0C0.733979 0.506192 0.925464 0.790994 1.19559 1.64638 1.50639 3.51121 1.00067 4.77918 0.176398 6.44833 0.0824364 6.6399-0.0115256 6.83145-0.108335 7.02883-0.673571 8.1113-1.18032 8.88278-2.25397 9.48629-3.63775 9.68756-4.21511 9.65927-5.35074 8.8199-6.11193 7.79005-6.25562 7.30576-6.33073 6.03673-6.07938 5.18444-5.8169 4.43422-5.46834 3.62596-5.38508 3.41798-5.30179 3.21001-5.21599 2.9957-4.65465 1.64277-4.14938 0.797987-2.92037 0.0195998-1.87209-0.381211-1.05788-0.362703 0 0Z" stroke="#EB5EAE" stroke-width="0.313744" stroke-linecap="butt" stroke-linejoin="miter" stroke-miterlimit="4" stroke-opacity="1" fill="#EB5EAE" fill-rule="nonzero" fill-opacity="1" transform="matrix(1 0 0 1.00179 915.173 1064.93)"/><path d="M0 0C0.940789 0.627193 0.940789 0.627193 1.56798 1.56798 1.931 3.7461 1.19854 5.10645 0 6.89912-1.07959 8.37971-1.07959 8.37971-1.88158 8.7807-4.09764 8.99868-4.09764 8.99868-5.31154 8.09471-5.98844 7.17164-6.18745 6.76754-6.27193 5.64474-5.93506 4.72355-5.93506 4.72355-5.42914 3.76316-5.26623 3.44624-5.10331 3.1293-4.93548 2.80277-3.64484 0.621768-2.6494-0.435658 0 0Z" stroke="#EB5EAE" stroke-width="0.313744" stroke-linecap="butt" stroke-linejoin="miter" stroke-miterlimit="4" stroke-opacity="1" fill="#EB5EAE" fill-rule="nonzero" fill-opacity="1" transform="matrix(1 0 0 1.00179 842.046 1047.1)"/><path d="M0 0C0.883088 0.507775 1.14194 0.891157 1.44058 1.85585 1.80912 3.85802 1.29272 5.4595 0.313596 7.21272-0.539295 8.32197-1.35031 9.02346-2.76357 9.2119-3.76316 9.0943-3.76316 9.0943-4.64515 8.4475-5.50039 7.29902-5.66791 6.76748-5.64474 5.33114-5.3111 4.14314-4.88075 3.01317-4.39035 1.88158-4.29213 1.65318-4.19388 1.42478-4.09269 1.18946-3.18137-0.365537-1.57838-0.219775 0 0Z" stroke="#EB5EAE" stroke-width="0.313744" stroke-linecap="butt" stroke-linejoin="miter" stroke-miterlimit="4" stroke-opacity="1" fill="#EB5EAE" fill-rule="nonzero" fill-opacity="1" transform="matrix(1 0 0 1.00179 887.204 1043.02)"/></g></g></g></g></g></svg>